<svg class="main-svg" xmlns="http://www.w3.org/2000/svg" xmlns:xlink="http://www.w3.org/1999/xlink" width="1500" height="900" style="" viewBox="0 0 1500 900"><rect x="0" y="0" width="1500" height="900" style="fill: rgb(255, 255, 255); fill-opacity: 1;"/><defs id="defs-2011a3"><g class="clips"/><g class="gradients"/><g class="patterns"/></defs><g class="bglayer"/><g class="layer-below"><g class="imagelayer"/><g class="shapelayer"/></g><g class="cartesianlayer"/><g class="polarlayer"/><g class="smithlayer"/><g class="ternarylayer"/><g class="geolayer"/><g class="funnelarealayer"/><g class="pielayer"/><g class="iciclelayer"/><g class="treemaplayer"/><g class="sunburstlayer"/><g class="glimages"/><g class="sankey" transform="translate(80,100)matrix(1 0 0 1 0 0)" style="box-sizing: content-box; position: absolute; left: 0px; shape-rendering: geometricprecision; pointer-events: none;"><g class="sankey-links" style="fill: none;"><path class="sankey-link" d="M20,715.373050045881C142,715.373050045881 142,715.3730500458812 264,715.3730500458812L264,720C142,720 142,719.9999999999998 20,719.9999999999998Z" style="stroke: rgb(68, 68, 68); stroke-opacity: 1; fill: rgb(128, 128, 128); fill-opacity: 1; stroke-width: 0; opacity: 1;"/><path class="sankey-link" d="M20,29.999999999999773C142,29.999999999999773 142,-3.979039320256561e-13 264,-3.979039320256561e-13L264,486.7064304369305C142,486.7064304369305 142,516.7064304369306 20,516.7064304369306Z" style="stroke: rgb(68, 68, 68); stroke-opacity: 1; fill: rgb(128, 128, 128); fill-opacity: 1; stroke-width: 0; opacity: 1;"/><path class="sankey-link" d="M20,516.7064304369306C142,516.7064304369306 142,501.7064304369302 264,501.7064304369302L264,700.3730500458806C142,700.3730500458806 142,715.3730500458811 20,715.3730500458811Z" style="stroke: rgb(68, 68, 68); stroke-opacity: 1; fill: rgb(128, 128, 128); fill-opacity: 1; stroke-width: 0; opacity: 1;"/><path class="sankey-link" d="M284,717.4673537093245C406,717.4673537093245 406,667.5623683297395 528,667.5623683297395L528,667.9033014842535C406,667.9033014842535 406,717.8082868638385 284,717.8082868638385Z" style="stroke: rgb(248, 156, 116); stroke-opacity: 1; fill: rgb(248, 156, 116); fill-opacity: 1; stroke-width: 1; opacity: 1;"/><path class="sankey-link" d="M284,716.9316016093738C406,716.9316016093738 406,639.655613194566 528,639.655613194566L528,640.1913652945165C406,640.1913652945165 406,717.4673537093244 284,717.4673537093244Z" style="stroke: rgb(135, 197, 95); stroke-opacity: 1; fill: rgb(135, 197, 95); fill-opacity: 1; stroke-width: 1; opacity: 1;"/><path class="sankey-link" d="M284,715.3730500458812C406,715.3730500458812 406,524.8596083946791 528,524.8596083946791L528,526.4181599581716C406,526.4181599581716 406,716.9316016093737 284,716.9316016093737Z" style="stroke: rgb(68, 68, 68); stroke-opacity: 1; fill: rgb(102, 197, 204); fill-opacity: 1; stroke-width: 0; opacity: 1;"/><path class="sankey-link" d="M284,276.5941977835812C406,276.5941977835812 406,655.1913652945168 528,655.1913652945168L528,661.4742762848464C406,661.4742762848464 406,282.8771087739108 284,282.8771087739108Z" style="stroke: rgb(68, 68, 68); stroke-opacity: 1; fill: rgb(254, 136, 177); fill-opacity: 1; stroke-width: 0; opacity: 1;"/><path class="sankey-link" d="M284,225.11329145196544C406,225.11329145196544 406,541.4181599581715 528,541.4181599581715L528,592.8990662897871C406,592.8990662897871 406,276.5941977835812 284,276.5941977835812Z" style="stroke: rgb(68, 68, 68); stroke-opacity: 1; fill: rgb(158, 185, 243); fill-opacity: 1; stroke-width: 0; opacity: 1;"/><path class="sankey-link" d="M284,-4.121147867408581e-13C406,-4.121147867408581e-13 406,244.80737432959833 528,244.80737432959833L528,469.92066578156414C406,469.92066578156414 406,225.11329145196544 284,225.11329145196544Z" style="stroke: rgb(68, 68, 68); stroke-opacity: 1; fill: rgb(246, 207, 113); fill-opacity: 1; stroke-width: 0; opacity: 1;"/><path class="sankey-link" d="M284,603.4019199548238C406,603.4019199548238 406,661.4742762848464 528,661.4742762848464L528,667.5623683297395C406,667.5623683297395 406,609.4900119997169 284,609.4900119997169Z" style="stroke: rgb(68, 68, 68); stroke-opacity: 1; fill: rgb(139, 224, 164); fill-opacity: 1; stroke-width: 0; opacity: 1;"/><path class="sankey-link" d="M284,556.6453730500451C406,556.6453730500451 406,592.8990662897872 528,592.8990662897872L528,639.6556131945661C406,639.6556131945661 406,603.4019199548239 284,603.4019199548239Z" style="stroke: rgb(68, 68, 68); stroke-opacity: 1; fill: rgb(201, 219, 116); fill-opacity: 1; stroke-width: 0; opacity: 1;"/><path class="sankey-link" d="M284,501.7064304369302C406,501.7064304369302 406,469.92066578156414 528,469.92066578156414L528,524.8596083946791C406,524.8596083946791 406,556.6453730500451 284,556.6453730500451Z" style="stroke: rgb(68, 68, 68); stroke-opacity: 1; fill: rgb(220, 176, 242); fill-opacity: 1; stroke-width: 0; opacity: 1;"/><path class="sankey-link" d="M548,659.2338584123258C670,659.2338584123258 670,638.9788941887415 792,638.9788941887415L792,640.2939220704385C670,640.2939220704385 670,660.5488862940229 548,660.5488862940229Z" style="stroke: rgb(68, 68, 68); stroke-opacity: 1; fill: rgb(248, 156, 116); fill-opacity: 1; stroke-width: 0; opacity: 1;"/><path class="sankey-link" d="M548,658.259763685143C670,658.259763685143 670,609.2213590719209 792,609.2213590719209L792,610.1954537991039C670,610.1954537991039 670,659.233858412326 548,659.233858412326Z" style="stroke: rgb(135, 197, 95); stroke-opacity: 1; fill: rgb(135, 197, 95); fill-opacity: 1; stroke-width: 1; opacity: 1;"/><path class="sankey-link" d="M548,655.1913652945168C670,655.1913652945168 670,528.4699649870755 792,528.4699649870755L792,531.5383633777016C670,531.5383633777016 670,658.2597636851428 548,658.2597636851428Z" style="stroke: rgb(68, 68, 68); stroke-opacity: 1; fill: rgb(102, 197, 204); fill-opacity: 1; stroke-width: 0; opacity: 1;"/><path class="sankey-link" d="M548,593.9705704896885C670,593.9705704896885 670,635.2286294890873 792,635.2286294890873L792,638.9788941887414C670,638.9788941887414 670,597.7208351893426 548,597.7208351893426Z" style="stroke: rgb(68, 68, 68); stroke-opacity: 1; fill: rgb(254, 136, 177); fill-opacity: 1; stroke-width: 0; opacity: 1;"/><path class="sankey-link" d="M548,573.1736480643337C670,573.1736480643337 670,588.4244366465662 792,588.4244366465662L792,609.2213590719209C670,609.2213590719209 670,593.9705704896885 548,593.9705704896885Z" style="stroke: rgb(68, 68, 68); stroke-opacity: 1; fill: rgb(158, 185, 243); fill-opacity: 1; stroke-width: 0; opacity: 1;"/><path class="sankey-link" d="M548,541.4181599581715C670,541.4181599581715 670,496.7144768809132 792,496.7144768809132L792,528.4699649870754C670,528.4699649870754 670,573.1736480643336 548,573.1736480643336Z" style="stroke: rgb(68, 68, 68); stroke-opacity: 1; fill: rgb(246, 207, 113); fill-opacity: 1; stroke-width: 0; opacity: 1;"/><path class="sankey-link" d="M548,382.1547308623858C670,382.1547308623858 670,625.1954537991036 792,625.1954537991036L792,635.2286294890874C670,635.2286294890874 670,392.18790655236955 548,392.18790655236955Z" style="stroke: rgb(68, 68, 68); stroke-opacity: 1; fill: rgb(139, 224, 164); fill-opacity: 1; stroke-width: 0; opacity: 1;"/><path class="sankey-link" d="M548,340.26865759352154C670,340.26865759352154 670,546.5383633777019 792,546.5383633777019L792,588.4244366465662C670,588.4244366465662 670,382.1547308623858 548,382.1547308623858Z" style="stroke: rgb(68, 68, 68); stroke-opacity: 1; fill: rgb(201, 219, 116); fill-opacity: 1; stroke-width: 0; opacity: 1;"/><path class="sankey-link" d="M548,244.8073743295983C670,244.8073743295983 670,401.2531936169901 792,401.2531936169901L792,496.71447688091325C670,496.71447688091325 670,340.2686575935215 548,340.2686575935215Z" style="stroke: rgb(68, 68, 68); stroke-opacity: 1; fill: rgb(220, 176, 242); fill-opacity: 1; stroke-width: 0; opacity: 1;"/><path class="sankey-link" d="M812,629.2866516532717C934,629.2866516532717 934,695.4030706240909 1056,695.4030706240909L1056,697.0590316603019C934,697.0590316603019 934,630.9426126894828 812,630.9426126894828Z" style="stroke: rgb(68, 68, 68); stroke-opacity: 1; fill: rgb(248, 156, 116); fill-opacity: 1; stroke-width: 0; opacity: 1;"/><path class="sankey-link" d="M812,628.020328507934C934,628.020328507934 934,670.9056470340576 1056,670.9056470340576L1056,672.1719701793953C934,672.1719701793953 934,629.2866516532717 812,629.2866516532717Z" style="stroke: rgb(68, 68, 68); stroke-opacity: 1; fill: rgb(135, 197, 95); fill-opacity: 1; stroke-width: 0; opacity: 1;"/><path class="sankey-link" d="M812,625.1954537991036C934,625.1954537991036 934,625.8061199641061 1056,625.8061199641061L1056,628.6309946729364C934,628.6309946729364 934,628.0203285079339 812,628.0203285079339Z" style="stroke: rgb(68, 68, 68); stroke-opacity: 1; fill: rgb(102, 197, 204); fill-opacity: 1; stroke-width: 0; opacity: 1;"/><path class="sankey-link" d="M812,580.5829740927439C934,580.5829740927439 934,691.8963296062325 1056,691.8963296062325L1056,695.4030706240908C934,695.4030706240908 934,584.0897151106022 812,584.0897151106022Z" style="stroke: rgb(68, 68, 68); stroke-opacity: 1; fill: rgb(254, 136, 177); fill-opacity: 1; stroke-width: 0; opacity: 1;"/><path class="sankey-link" d="M812,566.1663721304371C934,566.1663721304371 934,656.4890450717508 1056,656.4890450717508L1056,670.9056470340574C934,670.9056470340574 934,580.5829740927438 812,580.5829740927438Z" style="stroke: rgb(68, 68, 68); stroke-opacity: 1; fill: rgb(158, 185, 243); fill-opacity: 1; stroke-width: 0; opacity: 1;"/><path class="sankey-link" d="M812,546.5383633777019C934,546.5383633777019 934,606.1781112113708 1056,606.1781112113708L1056,625.8061199641061C934,625.8061199641061 934,566.1663721304371 812,566.1663721304371Z" style="stroke: rgb(68, 68, 68); stroke-opacity: 1; fill: rgb(246, 207, 113); fill-opacity: 1; stroke-width: 0; opacity: 1;"/><path class="sankey-link" d="M812,463.8874845748499C934,463.8874845748499 934,687.1719701793954 1056,687.1719701793954L1056,691.8963296062325C934,691.8963296062325 934,468.61184400168696 812,468.61184400168696Z" style="stroke: rgb(68, 68, 68); stroke-opacity: 1; fill: rgb(139, 224, 164); fill-opacity: 1; stroke-width: 0; opacity: 1;"/><path class="sankey-link" d="M812,451.02943417603575C934,451.02943417603575 934,643.6309946729366 1056,643.6309946729366L1056,656.4890450717508C934,656.4890450717508 934,463.8874845748499 812,463.8874845748499Z" style="stroke: rgb(68, 68, 68); stroke-opacity: 1; fill: rgb(201, 219, 116); fill-opacity: 1; stroke-width: 0; opacity: 1;"/><path class="sankey-link" d="M812,401.2531936169901C934,401.2531936169901 934,556.4018706523252 1056,556.4018706523252L1056,606.1781112113708C934,606.1781112113708 934,451.0294341760357 812,451.0294341760357Z" style="stroke: rgb(68, 68, 68); stroke-opacity: 1; fill: rgb(220, 176, 242); fill-opacity: 1; stroke-width: 0; opacity: 1;"/><path class="sankey-link" d="M1076,690.4351875154581C1198,690.4351875154581 1198,672.8233017429088 1320,672.8233017429088L1320,674.2844438336831C1198,674.2844438336831 1198,691.8963296062324 1076,691.8963296062324Z" style="stroke: rgb(68, 68, 68); stroke-opacity: 1; fill: rgb(248, 156, 116); fill-opacity: 1; stroke-width: 0; opacity: 1;"/><path class="sankey-link" d="M1076,689.4123880519161C1198,689.4123880519161 1198,652.3196665343254 1320,652.3196665343254L1320,653.3424659978674C1198,653.3424659978674 1198,690.4351875154581 1076,690.4351875154581Z" style="stroke: rgb(68, 68, 68); stroke-opacity: 1; fill: rgb(135, 197, 95); fill-opacity: 1; stroke-width: 0; opacity: 1;"/><path class="sankey-link" d="M1076,687.1719701793954C1198,687.1719701793954 1198,621.2471035358077 1320,621.2471035358077L1320,623.4875214083282C1198,623.4875214083282 1198,689.412388051916 1076,689.412388051916Z" style="stroke: rgb(68, 68, 68); stroke-opacity: 1; fill: rgb(102, 197, 204); fill-opacity: 1; stroke-width: 0; opacity: 1;"/><path class="sankey-link" d="M1076,658.4859392624757C1198,658.4859392624757 1198,670.9238170249022 1320,670.9238170249022L1320,672.8233017429087C1198,672.8233017429087 1198,660.3854239804822 1076,660.3854239804822Z" style="stroke: rgb(68, 68, 68); stroke-opacity: 1; fill: rgb(254, 136, 177); fill-opacity: 1; stroke-width: 0; opacity: 1;"/><path class="sankey-link" d="M1076,651.521161963118C1198,651.521161963118 1198,645.3548892349677 1320,645.3548892349677L1320,652.3196665343253C1198,652.3196665343253 1198,658.4859392624755 1076,658.4859392624755Z" style="stroke: rgb(68, 68, 68); stroke-opacity: 1; fill: rgb(158, 185, 243); fill-opacity: 1; stroke-width: 0; opacity: 1;"/><path class="sankey-link" d="M1076,643.6309946729366C1198,643.6309946729366 1198,613.3569362456263 1320,613.3569362456263L1320,621.2471035358077C1198,621.2471035358077 1198,651.521161963118 1076,651.521161963118Z" style="stroke: rgb(68, 68, 68); stroke-opacity: 1; fill: rgb(246, 207, 113); fill-opacity: 1; stroke-width: 0; opacity: 1;"/><path class="sankey-link" d="M1076,590.9335287309586C1198,590.9335287309586 1198,668.3424659978675 1320,668.3424659978675L1320,670.9238170249023C1198,670.9238170249023 1198,593.5148797579934 1076,593.5148797579934Z" style="stroke: rgb(68, 68, 68); stroke-opacity: 1; fill: rgb(139, 224, 164); fill-opacity: 1; stroke-width: 0; opacity: 1;"/><path class="sankey-link" d="M1076,584.0661609043193C1198,584.0661609043193 1198,638.4875214083283 1320,638.4875214083283L1320,645.3548892349677C1198,645.3548892349677 1198,590.9335287309586 1076,590.9335287309586Z" style="stroke: rgb(68, 68, 68); stroke-opacity: 1; fill: rgb(201, 219, 116); fill-opacity: 1; stroke-width: 0; opacity: 1;"/><path class="sankey-link" d="M1076,556.4018706523252C1198,556.4018706523252 1198,585.6926459936323 1320,585.6926459936323L1320,613.3569362456263C1198,613.3569362456263 1198,584.0661609043193 1076,584.0661609043193Z" style="stroke: rgb(68, 68, 68); stroke-opacity: 1; fill: rgb(220, 176, 242); fill-opacity: 1; stroke-width: 0; opacity: 1;"/></g><g class="sankey-node-set" style="cursor: move;"><g class="sankey-node" transform="translate(0.000,30.000)" style="opacity: 1;"><rect class="node-rect" width="20" height="690.0000000000002" style="stroke-width: 0.5; stroke: rgb(0, 0, 0); stroke-opacity: 1; fill: rgb(0, 0, 255); fill-opacity: 1;"/><text class="node-label" data-notex="1" x="0" y="0" text-anchor="start" transform="translate(23.25,348.5000000000001)" style="cursor: default; font-family: 'Open Sans', verdana, arial, sans-serif; font-size: 10px; fill: rgb(42, 63, 95); fill-opacity: 1; text-shadow: rgb(255, 255, 255) 1px 1px 1px, rgb(255, 255, 255) -1px -1px 1px, rgb(255, 255, 255) 1px -1px 1px, rgb(255, 255, 255) -1px 1px 1px; white-space: pre;">[0] start 14_167 (100% | 100%)</text></g><g class="sankey-node" transform="translate(264.000,715.373)" style="opacity: 1;"><rect class="node-rect" width="20" height="4.6269499541188" style="stroke-width: 0.5; stroke: rgb(0, 0, 0); stroke-opacity: 1; fill: rgb(0, 0, 255); fill-opacity: 1;"/><text class="node-label" data-notex="1" x="0" y="0" text-anchor="start" transform="translate(23.25,5.8134749770594)" style="cursor: default; font-family: 'Open Sans', verdana, arial, sans-serif; font-size: 10px; fill: rgb(42, 63, 95); fill-opacity: 1; text-shadow: rgb(255, 255, 255) 1px 1px 1px, rgb(255, 255, 255) -1px -1px 1px, rgb(255, 255, 255) 1px -1px 1px, rgb(255, 255, 255) -1px 1px 1px; white-space: pre;">[1] be 95 (1% | 1%)</text></g><g class="sankey-node" transform="translate(264.000,-0.000)" style="opacity: 1;"><rect class="node-rect" width="20" height="486.7064304369306" style="stroke-width: 0.5; stroke: rgb(0, 0, 0); stroke-opacity: 1; fill: rgb(0, 0, 255); fill-opacity: 1;"/><text class="node-label" data-notex="1" x="0" y="0" text-anchor="start" transform="translate(23.25,246.8532152184653)" style="cursor: default; font-family: 'Open Sans', verdana, arial, sans-serif; font-size: 10px; fill: rgb(42, 63, 95); fill-opacity: 1; text-shadow: rgb(255, 255, 255) 1px 1px 1px, rgb(255, 255, 255) -1px -1px 1px, rgb(255, 255, 255) 1px -1px 1px, rgb(255, 255, 255) -1px 1px 1px; white-space: pre;">[1] op 9_993 (71% | 71%)</text></g><g class="sankey-node" transform="translate(264.000,501.706)" style="opacity: 1;"><rect class="node-rect" width="20" height="198.666619608951" style="stroke-width: 0.5; stroke: rgb(0, 0, 0); stroke-opacity: 1; fill: rgb(0, 0, 255); fill-opacity: 1;"/><text class="node-label" data-notex="1" x="0" y="0" text-anchor="start" transform="translate(23.25,102.8333098044755)" style="cursor: default; font-family: 'Open Sans', verdana, arial, sans-serif; font-size: 10px; fill: rgb(42, 63, 95); fill-opacity: 1; text-shadow: rgb(255, 255, 255) 1px 1px 1px, rgb(255, 255, 255) -1px -1px 1px, rgb(255, 255, 255) 1px -1px 1px, rgb(255, 255, 255) -1px 1px 1px; white-space: pre;">[1] sy 4_079 (29% | 29%)</text></g><g class="sankey-node" transform="translate(528.000,655.191)" style="opacity: 1;"><rect class="node-rect" width="20" height="12.711936189736775" style="stroke-width: 0.5; stroke: rgb(0, 0, 0); stroke-opacity: 1; fill: rgb(0, 0, 255); fill-opacity: 1;"/><text class="node-label" data-notex="1" x="0" y="0" text-anchor="start" transform="translate(23.25,9.855968094868388)" style="cursor: default; font-family: 'Open Sans', verdana, arial, sans-serif; font-size: 10px; fill: rgb(42, 63, 95); fill-opacity: 1; text-shadow: rgb(255, 255, 255) 1px 1px 1px, rgb(255, 255, 255) -1px -1px 1px, rgb(255, 255, 255) 1px -1px 1px, rgb(255, 255, 255) -1px 1px 1px; white-space: pre;">[2] be 261 (2% | 3%)</text></g><g class="sankey-node" transform="translate(528.000,541.418)" style="opacity: 1;"><rect class="node-rect" width="20" height="98.77320533634531" style="stroke-width: 0.5; stroke: rgb(0, 0, 0); stroke-opacity: 1; fill: rgb(0, 0, 255); fill-opacity: 1;"/><text class="node-label" data-notex="1" x="0" y="0" text-anchor="start" transform="translate(23.25,52.88660266817266)" style="cursor: default; font-family: 'Open Sans', verdana, arial, sans-serif; font-size: 10px; fill: rgb(42, 63, 95); fill-opacity: 1; text-shadow: rgb(255, 255, 255) 1px 1px 1px, rgb(255, 255, 255) -1px -1px 1px, rgb(255, 255, 255) 1px -1px 1px, rgb(255, 255, 255) -1px 1px 1px; white-space: pre;">[2] op 2_028 (14% | 25%)</text></g><g class="sankey-node" transform="translate(528.000,244.807)" style="opacity: 1;"><rect class="node-rect" width="20" height="281.6107856285732" style="stroke-width: 0.5; stroke: rgb(0, 0, 0); stroke-opacity: 1; fill: rgb(0, 0, 255); fill-opacity: 1;"/><text class="node-label" data-notex="1" x="0" y="0" text-anchor="start" transform="translate(23.25,144.3053928142866)" style="cursor: default; font-family: 'Open Sans', verdana, arial, sans-serif; font-size: 10px; fill: rgb(42, 63, 95); fill-opacity: 1; text-shadow: rgb(255, 255, 255) 1px 1px 1px, rgb(255, 255, 255) -1px -1px 1px, rgb(255, 255, 255) 1px -1px 1px, rgb(255, 255, 255) -1px 1px 1px; white-space: pre;">[2] sy 5_782 (41% | 72%)</text></g><g class="sankey-node" transform="translate(792.000,625.195)" style="opacity: 1;"><rect class="node-rect" width="20" height="15.098468271334696" style="stroke-width: 0.5; stroke: rgb(0, 0, 0); stroke-opacity: 1; fill: rgb(0, 0, 255); fill-opacity: 1;"/><text class="node-label" data-notex="1" x="0" y="0" text-anchor="start" transform="translate(23.25,11.049234135667348)" style="cursor: default; font-family: 'Open Sans', verdana, arial, sans-serif; font-size: 10px; fill: rgb(42, 63, 95); fill-opacity: 1; text-shadow: rgb(255, 255, 255) 1px 1px 1px, rgb(255, 255, 255) -1px -1px 1px, rgb(255, 255, 255) 1px -1px 1px, rgb(255, 255, 255) -1px 1px 1px; white-space: pre;">[3] be 310 (2% | 7%)</text></g><g class="sankey-node" transform="translate(792.000,546.538)" style="opacity: 1;"><rect class="node-rect" width="20" height="63.657090421401676" style="stroke-width: 0.5; stroke: rgb(0, 0, 0); stroke-opacity: 1; fill: rgb(0, 0, 255); fill-opacity: 1;"/><text class="node-label" data-notex="1" x="0" y="0" text-anchor="start" transform="translate(23.25,35.32854521070084)" style="cursor: default; font-family: 'Open Sans', verdana, arial, sans-serif; font-size: 10px; fill: rgb(42, 63, 95); fill-opacity: 1; text-shadow: rgb(255, 255, 255) 1px 1px 1px, rgb(255, 255, 255) -1px -1px 1px, rgb(255, 255, 255) 1px -1px 1px, rgb(255, 255, 255) -1px 1px 1px; white-space: pre;">[3] op 1_307 (9% | 30%)</text></g><g class="sankey-node" transform="translate(792.000,401.253)" style="opacity: 1;"><rect class="node-rect" width="20" height="130.28516976071182" style="stroke-width: 0.5; stroke: rgb(0, 0, 0); stroke-opacity: 1; fill: rgb(0, 0, 255); fill-opacity: 1;"/><text class="node-label" data-notex="1" x="0" y="0" text-anchor="start" transform="translate(23.25,68.64258488035591)" style="cursor: default; font-family: 'Open Sans', verdana, arial, sans-serif; font-size: 10px; fill: rgb(42, 63, 95); fill-opacity: 1; text-shadow: rgb(255, 255, 255) 1px 1px 1px, rgb(255, 255, 255) -1px -1px 1px, rgb(255, 255, 255) 1px -1px 1px, rgb(255, 255, 255) -1px 1px 1px; white-space: pre;">[3] sy 2_675 (19% | 62%)</text></g><g class="sankey-node" transform="translate(1056.000,687.172)" style="opacity: 1;"><rect class="node-rect" width="20" height="9.887061480906368" style="stroke-width: 0.5; stroke: rgb(0, 0, 0); stroke-opacity: 1; fill: rgb(0, 0, 255); fill-opacity: 1;"/><text class="node-label" data-notex="1" x="0" y="0" text-anchor="start" transform="translate(23.25,8.443530740453184)" style="cursor: default; font-family: 'Open Sans', verdana, arial, sans-serif; font-size: 10px; fill: rgb(42, 63, 95); fill-opacity: 1; text-shadow: rgb(255, 255, 255) 1px 1px 1px, rgb(255, 255, 255) -1px -1px 1px, rgb(255, 255, 255) 1px -1px 1px, rgb(255, 255, 255) -1px 1px 1px; white-space: pre;">[4] be 203 (1% | 9%)</text></g><g class="sankey-node" transform="translate(1056.000,643.631)" style="opacity: 1;"><rect class="node-rect" width="20" height="28.540975506458835" style="stroke-width: 0.5; stroke: rgb(0, 0, 0); stroke-opacity: 1; fill: rgb(0, 0, 255); fill-opacity: 1;"/><text class="node-label" data-notex="1" x="0" y="0" text-anchor="start" transform="translate(23.25,17.770487753229418)" style="cursor: default; font-family: 'Open Sans', verdana, arial, sans-serif; font-size: 10px; fill: rgb(42, 63, 95); fill-opacity: 1; text-shadow: rgb(255, 255, 255) 1px 1px 1px, rgb(255, 255, 255) -1px -1px 1px, rgb(255, 255, 255) 1px -1px 1px, rgb(255, 255, 255) -1px 1px 1px; white-space: pre;">[4] op 586 (4% | 26%)</text></g><g class="sankey-node" transform="translate(1056.000,556.402)" style="opacity: 1;"><rect class="node-rect" width="20" height="72.22912402061138" style="stroke-width: 0.5; stroke: rgb(0, 0, 0); stroke-opacity: 1; fill: rgb(0, 0, 255); fill-opacity: 1;"/><text class="node-label" data-notex="1" x="0" y="0" text-anchor="start" transform="translate(23.25,39.61456201030569)" style="cursor: default; font-family: 'Open Sans', verdana, arial, sans-serif; font-size: 10px; fill: rgb(42, 63, 95); fill-opacity: 1; text-shadow: rgb(255, 255, 255) 1px 1px 1px, rgb(255, 255, 255) -1px -1px 1px, rgb(255, 255, 255) 1px -1px 1px, rgb(255, 255, 255) -1px 1px 1px; white-space: pre;">[4] sy 1_483 (10% | 65%)</text></g><g class="sankey-node" transform="translate(1320.000,668.342)" style="opacity: 1;"><rect class="node-rect" width="20" height="5.941977835815578" style="stroke-width: 0.5; stroke: rgb(0, 0, 0); stroke-opacity: 1; fill: rgb(0, 0, 255); fill-opacity: 1;"/><text class="node-label" data-notex="1" x="0" y="0" text-anchor="end" transform="translate(-3.25,6.470988917907789)" style="cursor: default; font-family: 'Open Sans', verdana, arial, sans-serif; font-size: 10px; fill: rgb(42, 63, 95); fill-opacity: 1; text-shadow: rgb(255, 255, 255) 1px 1px 1px, rgb(255, 255, 255) -1px -1px 1px, rgb(255, 255, 255) 1px -1px 1px, rgb(255, 255, 255) -1px 1px 1px; white-space: pre;">[5] be 122 (1% | 10%)</text></g><g class="sankey-node" transform="translate(1320.000,638.488)" style="opacity: 1;"><rect class="node-rect" width="20" height="14.854944589539173" style="stroke-width: 0.5; stroke: rgb(0, 0, 0); stroke-opacity: 1; fill: rgb(0, 0, 255); fill-opacity: 1;"/><text class="node-label" data-notex="1" x="0" y="0" text-anchor="end" transform="translate(-3.25,10.927472294769586)" style="cursor: default; font-family: 'Open Sans', verdana, arial, sans-serif; font-size: 10px; fill: rgb(42, 63, 95); fill-opacity: 1; text-shadow: rgb(255, 255, 255) 1px 1px 1px, rgb(255, 255, 255) -1px -1px 1px, rgb(255, 255, 255) 1px -1px 1px, rgb(255, 255, 255) -1px 1px 1px; white-space: pre;">[5] op 305 (2% | 25%)</text></g><g class="sankey-node" transform="translate(1320.000,585.693)" style="opacity: 1;"><rect class="node-rect" width="20" height="37.794875414696094" style="stroke-width: 0.5; stroke: rgb(0, 0, 0); stroke-opacity: 1; fill: rgb(0, 0, 255); fill-opacity: 1;"/><text class="node-label" data-notex="1" x="0" y="0" text-anchor="end" transform="translate(-3.25,22.397437707348047)" style="cursor: default; font-family: 'Open Sans', verdana, arial, sans-serif; font-size: 10px; fill: rgb(42, 63, 95); fill-opacity: 1; text-shadow: rgb(255, 255, 255) 1px 1px 1px, rgb(255, 255, 255) -1px -1px 1px, rgb(255, 255, 255) 1px -1px 1px, rgb(255, 255, 255) -1px 1px 1px; white-space: pre;">[5] sy 776 (5% | 65%)</text></g></g></g><defs id="topdefs-2011a3"><g class="clips"/></defs><g class="layer-above"><g class="imagelayer"/><g class="shapelayer"/></g><g class="infolayer"><g class="g-gtitle"><text class="gtitle" x="75" y="50" text-anchor="start" dy="0em" style="opacity: 1; font-family: 'Open Sans', verdana, arial, sans-serif; font-size: 14px; fill: rgb(42, 63, 95); fill-opacity: 1; white-space: pre;">[z_tum_id] over [event], top 5 events, n=14_167 id (31_338 events)</text></g><g class="first-render"/></g></svg>